<svg version="1.2" xmlns="http://www.w3.org/2000/svg" viewBox="0 0 512 512" width="512" height="512">
	<title>circle-check-solid-svg</title>
	<style>
		.s0 { fill: #d6000d } 
	</style>
	<path id="Layer" fill-rule="evenodd" class="s0" d="m0 256c0-141.4 114.6-256 256-256c141.4 0 256 114.6 256 256c0 141.4-114.6 256-256 256c-141.4 0-256-114.6-256-256zm371.8-44.2c10.9-10.9 10.9-28.7 0-39.6c-10.9-10.9-28.7-10.9-39.6 0l-108.2 108.2l-44.2-44.2c-10.9-10.9-28.7-10.9-39.6 0c-10.9 10.9-10.9 28.7 0 39.6l64 64c10.9 10.9 28.7 10.9 39.6 0z" />
</svg>